<!--?xml version="1.0" encoding="utf-8"?-->
<!-- Generator: Adobe Illustrator 22.1.0, SVG Export Plug-In . SVG Version: 6.00 Build 0)  -->
<svg version="1.1" id="_x31__1_" xmlns="http://www.w3.org/2000/svg" xmlns:xlink="http://www.w3.org/1999/xlink" x="0px" y="0px" viewBox="0 0 850 815" style="width: 425px; height: 407.5px;" xml:space="preserve">
<style type="text/css">
	.st0{fill:#FFFFFF;}
</style>
<g>
	<path d="M801.344,355.014c-1.242-15.938-4.398-31.836-9.378-47.249c-4.845-15.046-11.314-29.331-19.226-42.454
		c-7.523-12.502-16.406-23.893-25.673-32.923c-8.561-8.402-17.951-15.284-27.208-19.93c-2.015-0.993-4.194-1.518-6.299-1.518
		c-0.668,0-1.315,0.072-1.951,0.176c-2.391-1.544-4.722-2.9-6.964-4.063c-4.023-2.753-7.535-5.128-10.492-7.093
		c0.646-1.607,0.862-3.367,0.568-5.159l-0.547-3.088c-0.018-0.107-0.039-0.214-0.063-0.32c-0.233-1.05-0.508-2.141-0.795-3.278
		l-0.062-0.246c-0.565-2.399-1.346-4.708-2.172-7.15c0,0-0.372-1.096-0.394-1.161c-2.312-6.303-5.316-12.421-8.928-18.178
		c-4.171-6.65-9.117-12.712-14.675-17.988c-5.773-5.53-12.699-10.433-20.091-14.206l-0.758-0.385
		c-0.637-0.326-1.276-0.65-1.919-0.95c-0.053-0.026-2.624-1.155-2.624-1.155c-1.464-0.673-2.876-1.199-4.244-1.708
		c-0.443-0.166-1.414-0.533-1.459-0.549c-1.632-0.591-3.23-1.077-4.775-1.545l-0.93-0.283c-0.157-0.049-0.319-0.092-0.479-0.129
		c-0.381-0.09-0.758-0.188-1.137-0.286c-0.108-0.052-0.214-0.107-0.322-0.158l-2.525-1.11c-1.67-0.772-3.439-1.375-5.172-2.04
		c-1.749-0.635-3.552-1.159-5.335-1.705c-1.827-0.431-3.614-0.977-5.461-1.287c-7.328-1.46-14.791-1.726-21.635-0.942
		c-6.847,0.807-13.066,2.499-18.314,4.534c-1.322,0.491-2.559,1.061-3.769,1.569c-1.214,0.503-2.345,1.06-3.418,1.615
		c-1.076,0.551-2.107,1.074-3.07,1.603c-0.937,0.567-1.83,1.105-2.675,1.614c-0.249,0.155-0.444,0.377-0.596,0.639
		c-0.353,0.102-0.696,0.207-1.047,0.31c-6.437-9.677-15.174-18.953-25.354-26.886c-10.78-8.224-23.226-15.123-36.105-19.992
		l-4.649-1.674c-1.295-0.486-2.562-0.86-3.681-1.188c-0.51-0.15-1.02-0.299-1.441-0.431c-0.017-0.005-0.034-0.01-0.051-0.016
		c-1.815-0.779-3.645-1.534-5.503-2.237c-1.577-0.568-3.158-1.138-4.743-1.709c-1.576-0.591-3.216-1.005-4.824-1.515
		c-3.217-1.058-6.513-1.738-9.791-2.522c-1.645-0.356-3.269-0.827-4.93-1.086c-1.659-0.271-3.316-0.542-4.97-0.812
		c-1.657-0.261-3.308-0.554-4.961-0.782c-1.662-0.157-3.321-0.315-4.974-0.471c-13.231-1.259-26.878-0.843-40.041,1.148
		c-13.158,2.007-25.867,5.45-37.265,10.146c-11.323,4.601-21.385,10.222-29.872,15.935c-4.367-1.98-9.001-3.635-13.689-4.823
		c-0.095-0.025-0.194-0.042-0.289-0.066c-4.207-2.062-9.043-3.922-14.363-5.272c-5.855-1.52-12.232-2.473-18.748-2.724
		c-6.516-0.245-13.165,0.215-19.561,1.322c-6.39,1.083-12.948,2.97-18.986,5.625c-6.056,2.644-11.659,6.022-16.458,9.789
		c-8.52,6.689-14.424,14.414-17.725,20.583c-8.456-1.101-18.118-1.2-28.211,0.199c-20.37,2.722-42.258,11.613-59.631,25.446
		c-8.662,6.875-16.555,15.087-23.013,24.096c-1.657,2.222-3.131,4.557-4.629,6.849c-1.396,2.36-2.828,4.674-4.054,7.076
		c-1.312,2.356-2.405,4.799-3.546,7.173c-1.014,2.438-2.09,4.81-2.931,7.24c-3.589,9.603-5.656,19.166-6.208,27.87
		c-0.417,6.701,0.106,12.843,1.211,18.026c-2.887,1.247-5.856,2.891-8.861,4.874c-1.229-1.283-3.014-1.636-4.263-0.761
		c-1.017,0.725-2.094,1.494-3.225,2.302c-1.139,0.808-2.224,1.782-3.411,2.744c-1.162,0.988-2.412,1.984-3.627,3.102
		c-1.195,1.142-2.431,2.322-3.706,3.539c-4.976,4.993-10.294,10.93-15.092,17.882c-9.724,13.79-18.032,31.175-22.236,48.911
		c-2.173,8.846-3.517,18.058-3.975,27.248c-0.135,2.308-0.091,4.614-0.094,6.902c0.108,2.289,0.134,4.564,0.38,6.815
		c0.338,4.503,1.1,8.907,2.036,13.138c1.389,5.879,3.332,11.416,5.773,16.338c1.813,7.038,4.337,13.503,7.401,18.995
		c-1.74,2.455-3.371,4.88-4.866,7.265c-0.009-0.646-0.067-1.416-0.275-2.202c-0.251-0.939-0.728-1.729-1.441-2.198
		c-0.698-0.463-1.622-0.555-2.418-0.171c-2.452,1.167-4.478,3.234-6.012,5.468c-0.779,1.122-1.464,2.309-2.085,3.515
		c-0.619,1.211-1.129,2.372-1.717,3.63c-2.237,4.998-4.241,10.856-5.632,17.29c-2.788,12.829-2.89,28.127,1.219,41.988
		c1.179,4.143,2.75,8.274,4.665,12.23c0.227,0.872,0.466,1.738,0.719,2.595c2.233,7.844,5.66,15.437,9.885,21.912
		c4.232,6.575,9.473,12.647,15.155,17.551c7.586,6.56,16.56,11.554,25.193,14.174c-0.753,9.191-0.312,19.268,1.561,29.688
		c1.582,9.426,4.5,19.047,8.559,28.398c6.49,21.92,19.124,43.372,35.352,59.425c5.925,5.778,11.126,10.179,16.354,13.84
		c2.506,1.886,5.063,3.483,7.537,5.027l1.313,0.821c1.207,0.789,2.4,1.427,3.453,1.988c0.466,0.25,0.932,0.497,1.391,0.76
		c0.072,0.039,0.144,0.079,0.217,0.118c0.44,0.231,0.873,0.471,1.308,0.711c1.043,0.577,2.222,1.229,3.534,1.812
		c12.676,6.147,26.283,10.409,39.308,12.321c6.98,1.073,14.074,1.618,21.08,1.618c5.233,0,10.425-0.305,15.417-0.902
		c9.617-1.134,19.256-3.476,27.894-6.778c0.701-0.27,1.366-0.594,1.991-0.966c5.584,4.749,11.564,9.08,17.841,12.919
		c8.751,5.372,18.147,9.874,27.923,13.376c10.154,3.65,20.664,6.204,31.261,7.593c6.198,0.794,12.575,1.197,18.954,1.197
		c4.402,0,8.837-0.193,13.178-0.574c10.353-0.896,20.587-2.854,30.405-5.815c16.574-4.966,28.993-11.945,36.671-17.083
		c0.909,1.409,2.149,2.619,3.681,3.489c6.065,3.543,22.716,12.237,46.387,16.484l7.094,1.18c0.142,0.025,0.285,0.043,0.428,0.06
		l9.206,0.997c0.13,0.015,0.26,0.025,0.39,0.032l1.906,0.105l7.583,0.377c0.124,0.005,0.247,0.009,0.369,0.009
		c0.008,0,3.878-0.012,3.878-0.012l3.992-0.029c1.582,0,2.915-0.048,4.192-0.151l7.645-0.497c0.14-0.011,0.28-0.023,0.42-0.04
		l7.692-0.933l1.908-0.239c0.13-0.016,0.262-0.037,0.391-0.061l5.692-1.023l3.767-0.691c0.132-0.025,0.266-0.054,0.398-0.084
		l3.86-0.927c0.758-0.195,1.52-0.373,2.284-0.552c1.797-0.422,3.653-0.857,5.597-1.496l2.089-0.636
		c1.779-0.54,3.559-1.079,5.326-1.645c0.109-0.037,0.219-0.074,0.327-0.115l7.154-2.654c1.512-0.532,2.871-1.141,4.044-1.665
		l4.601-2.04c0.838-0.37,1.675-0.741,2.502-1.131c0.053-0.025,3.64-1.821,3.64-1.821c4.7-2.448,9.217-5.134,13.398-7.971
		c4.132-2.779,8.108-5.892,11.819-9.253c1.609-1.412,3.012-2.829,4.368-4.202l0.711-0.716c0.095-0.098,0.19-0.197,0.281-0.299
		c0.337-0.378,0.676-0.75,1.012-1.119c1.13-1.244,2.296-2.527,3.406-3.974c3.078-3.736,5.397-7.52,7.077-10.407
		c0.045-0.076,0.088-0.154,0.129-0.231c1.923-3.587,3.425-6.959,4.485-10.095c0.221-0.677,0.375-1.36,0.464-2.041
		c6.052,2.698,13.833,5.194,22.023,7.035c10.573,2.388,22.685,3.751,34.101,3.84l1.229,0.005c11.032,0,22.727-1.177,32.921-3.311
		c8.018-1.671,15.591-3.943,21.638-6.481c0.104,0.003,0.209,0.005,0.313,0.005c3.78,0,7.244-2.477,9.505-6.801
		c2.725-5.223,2.243-10.315-1.32-13.343c-3.299-2.742-7.875-5.994-13.174-9.761l-2.625-1.868
		c-7.32-5.211-13.762-10.026-19.146-14.305c-5.401-4.296-11.543-9.486-18.258-15.432l-0.121-0.107
		c6.149-1.704,12.516-4.444,18.391-7.97c10.697-6.329,20.691-16.021,27.404-26.56c6.778-10.538,11.39-23.675,12.651-35.991
		c1.043-9.597,0.271-19.39-2.093-27.285c7.635-6.279,14.893-15.094,21.035-25.561c6.4-10.849,11.94-23.643,16.469-38.03
		c4.453-14.145,7.765-29.216,9.844-44.797c1.067-8.02,1.77-16.007,2.094-23.749C802.172,370.128,802.022,362.203,801.344,355.014z"></path>
	<g>
		<path class="st0" d="M66.892,539.116c-14.497,1.45-103.65-46.388-31.168-135.541c-52.912-52.186,8.698-150.763,49.287-163.809
			c-19.57-39.14,55.811-127.569,128.292-117.421c22.47-37.689,88.429-44.213,113.798-21.02
			c24.643-34.066,157.285-60.884,210.922,31.168c39.14-13.771,106.549-34.067,135.541,58.711
			c14.496,9.423,44.213,30.443,44.213,30.443s59.435,52.911,59.435,139.889c0,86.977-49.288,132.641-49.288,132.641
			s7.248,38.416-11.597,61.61c-18.845,23.194-50.738,34.791-50.738,34.791s35.517,40.59,51.463,49.288
			c15.946,8.698-44.939,28.269-95.676,4.349c-4.349,5.798-12.322-2.174-16.672,10.872c-4.349,13.048-42.764,47.839-88.428,54.362
			c-45.663,6.523-102.923-18.845-105.098-18.12c-2.174,0.725-45.663,32.616-106.548,18.845
			c-60.885-13.771-63.784-31.168-63.784-31.168s-81.905,31.168-144.963-34.791C58.193,601.451,66.892,539.116,66.892,539.116z"></path>
		<path d="M330.039,99.887c1.1-1.609,1.271-3.428,0.372-4.188c-5.389-4.658-14.817-10.129-26.579-13.113
			c-5.855-1.52-12.232-2.473-18.748-2.724c-6.516-0.245-13.165,0.215-19.561,1.322c-6.39,1.083-12.948,2.97-18.986,5.625
			c-6.056,2.644-11.659,6.022-16.458,9.789c-9.634,7.563-15.928,16.455-18.89,22.919c-0.498,1.064,0.408,2.653,2.072,3.667
			c1.665,1.015,3.49,1.192,4.19,0.404c4.258-4.873,10.71-11.821,19.421-17.73c4.347-2.946,9.241-5.596,14.456-7.698
			c5.228-2.116,10.714-3.634,16.325-4.59c5.599-0.969,11.413-1.442,17.126-1.391c5.715,0.058,11.322,0.639,16.534,1.61
			c10.467,1.898,19.178,5.55,25.071,8.201C327.346,102.413,328.938,101.496,330.039,99.887z"></path>
		<path d="M72.743,246.309c-1.223-1.518-3.187-1.977-4.527-1.039c-1.017,0.725-2.094,1.494-3.225,2.302
			c-1.139,0.808-2.224,1.782-3.411,2.744c-1.162,0.988-2.412,1.984-3.627,3.102c-1.195,1.142-2.431,2.322-3.706,3.539
			c-4.976,4.993-10.294,10.93-15.092,17.882c-9.724,13.79-18.032,31.175-22.236,48.911c-2.173,8.846-3.517,18.058-3.975,27.248
			c-0.135,2.308-0.091,4.614-0.094,6.902c0.108,2.289,0.134,4.564,0.38,6.815c0.338,4.503,1.1,8.907,2.036,13.138
			c1.995,8.443,5.106,16.214,9.246,22.408c4.062,6.234,8.932,10.835,13.29,13.729c1.454,0.949,3.421,0.427,4.541-1.169
			c1.12-1.595,1.193-3.616,0.172-4.628c-3.141-3.17-6.588-7.456-9.471-12.979c-2.946-5.48-5.146-12.257-6.534-19.698
			c-0.634-3.738-1.159-7.628-1.325-11.644c-0.159-1.997-0.114-4.036-0.163-6.074c0.061-2.046,0.06-4.104,0.226-6.169
			c0.583-8.305,1.884-16.782,3.874-24.875c3.852-16.267,11.205-32.332,19.569-45.518c8.35-13.255,17.793-23.471,24.347-30.262
			C74.098,249.858,73.967,247.826,72.743,246.309z"></path>
		<path d="M545.222,148.218c1.884-0.501,2.894-2.685,2.298-5.055c-1.831-7.173-5.319-15.892-11.171-24.656
			c-5.807-8.776-13.896-17.536-23.744-25.212c-9.918-7.566-21.511-14.133-34.062-18.88c-1.577-0.568-3.158-1.138-4.743-1.709
			c-1.576-0.591-3.216-1.005-4.824-1.515c-3.217-1.058-6.513-1.738-9.791-2.522c-1.645-0.356-3.269-0.827-4.93-1.086
			c-1.659-0.271-3.316-0.542-4.97-0.812c-1.657-0.261-3.308-0.554-4.961-0.782c-1.662-0.157-3.321-0.315-4.974-0.471
			c-13.231-1.259-26.878-0.843-40.041,1.148c-13.158,2.007-25.867,5.45-37.265,10.146c-11.425,4.643-21.571,10.323-30.107,16.09
			c-4.165,3.047-8.129,5.815-11.438,8.826c-1.681,1.465-3.33,2.815-4.804,4.214c-1.429,1.444-2.785,2.818-4.068,4.114
			c-1.665,1.708-1.884,4.089-0.527,5.489c1.356,1.399,3.772,1.419,5.553,0.037c1.358-1.069,2.795-2.201,4.309-3.393
			c1.537-1.159,3.232-2.273,4.939-3.502c3.362-2.536,7.311-4.842,11.389-7.441c8.371-4.873,18.08-9.736,28.876-13.715
			c10.774-4.034,22.667-6.971,34.911-8.67c12.247-1.686,24.879-1.991,37.091-0.83c1.528,0.142,3.06,0.284,4.594,0.427
			c1.526,0.209,3.044,0.48,4.573,0.716l4.585,0.726c1.533,0.228,3.026,0.661,4.542,0.979c3.016,0.704,6.071,1.298,9.005,2.239
			c1.472,0.453,2.976,0.806,4.421,1.334c1.453,0.504,2.906,1.007,4.354,1.509c11.534,4.183,22.243,9.96,31.485,16.531
			c9.168,6.679,16.794,14.219,22.532,21.748c5.776,7.519,9.601,14.999,12.163,21.258
			C541.246,147.535,543.339,148.717,545.222,148.218z"></path>
		<path d="M232.438,680.43c-0.647-1.839-2.822-2.867-5.003-2.354c-6.705,1.55-15.094,3.09-24.715,3.584
			c-9.607,0.51-20.423-0.018-31.638-2.122c-11.23-2.021-22.766-5.919-33.684-11.402c-1.398-0.625-2.689-1.454-4.038-2.18
			c-1.321-0.772-2.71-1.44-3.982-2.297c-2.576-1.664-5.208-3.255-7.643-5.132c-5.017-3.539-9.608-7.653-13.961-11.886
			c-17.32-17.14-29.612-40.596-34.111-62.905c-2.388-11.118-3.098-21.94-2.459-31.408c0.576-9.496,2.608-17.615,4.961-23.894
			c0.744-2.042,0.141-4.274-1.588-5.226c-1.685-0.932-4.039-0.074-5.201,2.112c-3.582,6.594-6.706,15.562-8.035,26.019
			c-1.396,10.447-1.161,22.284,1.05,34.585c4.139,24.658,17.353,50.667,36.51,69.617c4.811,4.691,9.918,9.222,15.515,13.13
			c2.721,2.061,5.65,3.816,8.531,5.63c1.428,0.931,2.965,1.664,4.44,2.5c1.502,0.789,2.95,1.676,4.5,2.353
			c12.147,5.906,24.925,9.893,37.259,11.702c12.32,1.895,24.11,1.918,34.44,0.678c10.344-1.22,19.199-3.703,26.042-6.319
			C231.875,684.35,233.083,682.27,232.438,680.43z"></path>
		<path d="M671.493,186.531c1.883-0.503,3.178-1.861,2.968-3.136c-0.171-0.973-0.354-2.002-0.546-3.085
			c-0.237-1.073-0.523-2.192-0.819-3.365c-0.55-2.356-1.424-4.833-2.318-7.491c-1.93-5.262-4.627-11.012-8.227-16.749
			c-3.596-5.732-8.121-11.434-13.489-16.531c-5.342-5.118-11.607-9.511-18.221-12.89c-0.829-0.414-1.656-0.854-2.495-1.246
			l-2.525-1.11c-1.67-0.772-3.439-1.375-5.172-2.04c-1.749-0.635-3.552-1.159-5.335-1.705c-1.827-0.431-3.614-0.977-5.461-1.287
			c-7.328-1.46-14.791-1.726-21.635-0.942c-6.847,0.807-13.066,2.499-18.314,4.534c-1.322,0.491-2.559,1.061-3.769,1.569
			c-1.214,0.503-2.345,1.06-3.418,1.615c-1.076,0.551-2.107,1.074-3.07,1.603c-0.937,0.567-1.83,1.105-2.675,1.614
			c-1.095,0.68-1.267,2.549-0.411,4.3c0.857,1.751,2.404,2.83,3.556,2.476c7.051-2.182,17.347-5.659,29.077-6.271
			c5.848-0.297,12.001,0.184,18.111,1.556c6.093,1.322,12.218,3.702,17.831,6.532c5.55,2.839,10.882,6.467,15.566,10.737
			c4.703,4.248,8.831,9.023,12.309,13.873c3.482,4.854,6.339,9.766,8.673,14.299c1.098,2.298,2.233,4.431,3.105,6.483
			c0.469,1.016,0.918,1.99,1.346,2.92c0.405,0.943,0.791,1.838,1.157,2.685C667.778,186.577,669.609,187.033,671.493,186.531z"></path>
		<path d="M413.249,687.169c-1.115-1.599-3.132-2.221-4.638-1.423c-9.189,4.973-23.127,11.691-39.959,15.948
			c-8.393,2.137-17.466,3.662-26.75,4.3c-9.281,0.646-18.768,0.401-27.927-0.769c-9.156-1.205-18.392-3.385-27.201-6.375
			c-8.815-2.983-17.198-6.77-24.77-10.976c-15.191-8.405-26.956-18.453-34.574-25.605c-1.251-1.155-3.361-1.069-4.847,0.193
			c-1.485,1.262-1.805,3.341-0.717,4.791c6.538,8.876,18.317,20.733,34.34,30.532c7.984,4.903,16.97,9.28,26.509,12.698
			c9.534,3.427,19.614,5.89,29.646,7.205c10.035,1.285,20.41,1.473,30.504,0.589c10.095-0.874,19.9-2.817,28.871-5.521
			c17.99-5.392,32.401-13.855,40.986-20.771C414.142,690.859,414.364,688.769,413.249,687.169z"></path>
		<path d="M606.268,652.236c-1.829-0.677-3.85-0.077-4.633,1.377c-1.238,2.238-2.789,4.638-4.572,7.172
			c-1.891,2.472-3.946,5.128-6.477,7.685c-1.195,1.33-2.598,2.561-3.952,3.883c-1.446,1.248-2.88,2.564-4.473,3.788
			c-3.124,2.499-6.542,4.939-10.25,7.204c-3.694,2.281-7.634,4.441-11.762,6.441c-1.041,0.485-2.086,0.973-3.134,1.463
			c-1.073,0.45-2.148,0.9-3.229,1.353c-1.081,0.452-2.166,0.905-3.253,1.359c-1.083,0.46-2.17,0.925-3.298,1.292
			c-2.232,0.791-4.474,1.586-6.72,2.381c-2.286,0.677-4.576,1.354-6.865,2.031c-2.271,0.742-4.628,1.161-6.933,1.746
			c-1.157,0.276-2.313,0.552-3.466,0.826c-1.168,0.212-2.331,0.424-3.493,0.634c-1.16,0.211-2.325,0.422-3.492,0.634l-1.751,0.322
			l-1.771,0.225c-2.361,0.302-4.73,0.605-7.102,0.908c-2.384,0.179-4.769,0.359-7.151,0.537c-1.19,0.116-2.381,0.158-3.574,0.17
			c-1.191,0.027-2.379,0.056-3.568,0.085c-1.188,0.027-2.371,0.055-3.554,0.082c-1.181-0.034-2.359-0.067-3.534-0.1
			c-1.174-0.031-2.346-0.061-3.512-0.091l-1.746-0.049l-1.733-0.137c-2.309-0.177-4.595-0.35-6.855-0.522
			c-2.249-0.285-4.472-0.567-6.662-0.844c-17.533-2.373-32.451-7.337-42.443-10.97c-1.637-0.574-3.568,0.33-4.437,2.074
			c-0.871,1.745-0.331,3.782,1.261,4.688c9.62,5.617,25.132,12.196,43.784,15.543c2.335,0.388,4.702,0.782,7.099,1.181
			c2.416,0.264,4.862,0.53,7.33,0.798l1.857,0.198l1.872,0.103c1.251,0.064,2.507,0.128,3.768,0.192
			c1.261,0.061,2.528,0.124,3.795,0.184c1.272-0.004,2.545-0.008,3.821-0.012c1.276-0.01,2.556-0.019,3.839-0.029
			c1.282,0.003,2.566-0.025,3.847-0.131c2.564-0.166,5.135-0.333,7.703-0.501c2.557-0.31,5.111-0.621,7.658-0.93l1.908-0.239
			l1.89-0.338c1.259-0.227,2.514-0.454,3.767-0.679c1.252-0.23,2.507-0.461,3.765-0.691c1.245-0.299,2.491-0.597,3.739-0.897
			c2.488-0.639,5.023-1.119,7.474-1.932c2.465-0.755,4.939-1.487,7.391-2.274c2.414-0.896,4.824-1.791,7.225-2.682
			c1.208-0.419,2.376-0.94,3.539-1.462c1.166-0.517,2.328-1.03,3.486-1.544c1.155-0.518,2.313-1.014,3.452-1.552
			c1.128-0.565,2.253-1.128,3.372-1.688c4.443-2.313,8.687-4.837,12.662-7.533c3.984-2.68,7.665-5.594,10.999-8.616
			c1.692-1.48,3.23-3.078,4.744-4.601c1.44-1.613,2.893-3.126,4.134-4.759c2.608-3.147,4.674-6.433,6.456-9.496
			c1.684-3.139,3.027-6.109,3.957-8.859C609.062,654.816,608.096,652.914,606.268,652.236z"></path>
		<path d="M729.453,645.213c-0.605-1.853-1.798-3.192-2.748-3.073c-5.788,0.842-14.159,2.386-23.695,3.596
			c-9.534,1.216-20.252,1.979-30.538,1.901c-10.284-0.082-20.99-1.013-30.504-2.379c-9.516-1.359-17.861-3.032-23.636-3.964
			c-0.947-0.133-2.16,1.186-2.793,3.03c-0.635,1.843-0.444,3.611,0.446,4.063c5.396,2.862,13.911,5.919,23.91,8.166
			c9.993,2.256,21.466,3.567,32.478,3.652c11.013,0.087,22.505-1.045,32.532-3.144c10.034-2.091,18.596-5.014,24.036-7.793
			C729.84,648.83,730.055,647.067,729.453,645.213z"></path>
		<path d="M731.145,647.732c0.901-1.729,1.153-3.441,0.572-3.935c-3.593-2.986-9.133-6.851-15.348-11.281
			c-6.217-4.427-13.079-9.469-19.47-14.549c-6.389-5.081-12.85-10.63-18.564-15.689c-5.717-5.056-10.731-9.583-14.45-12.409
			c-0.613-0.455-2.224,0.175-3.704,1.444c-1.48,1.268-2.325,2.77-1.936,3.454c2.339,4.214,6.621,9.835,12.055,15.715
			c5.43,5.883,12.048,11.973,18.778,17.323c6.73,5.351,14.154,10.425,21.109,14.39c6.953,3.969,13.397,6.873,18.029,8.203
			C728.972,650.621,730.243,649.458,731.145,647.732z"></path>
		<path d="M727.787,493.651c1.131,1.56,3.861,1.542,6.153-0.237c6.891-5.454,14.019-13.779,20.143-24.217
			c6.154-10.43,11.489-22.863,15.763-36.443c4.276-13.586,7.531-28.323,9.558-43.509c1.01-7.595,1.71-15.303,2.034-23.05
			c0.312-7.73,0.289-15.569-0.44-23.259c-1.191-15.356-4.29-30.871-9.038-45.566c-4.734-14.701-11.1-28.581-18.5-40.856
			c-7.39-12.282-15.815-22.966-24.477-31.408c-8.636-8.473-17.511-14.653-25.232-18.528c-2.556-1.259-5.157-0.854-6.012,0.897
			c-0.856,1.753,0.14,4.185,2.289,5.581c6.589,4.353,14.249,10.615,21.821,18.935c7.593,8.286,15.079,18.581,21.695,30.317
			c6.625,11.728,12.376,24.901,16.67,38.783c4.308,13.875,7.141,28.455,8.255,42.84c0.687,7.16,0.723,14.438,0.468,21.785
			c-0.266,7.338-0.873,14.699-1.755,21.969c-1.768,14.544-4.631,28.727-8.336,41.77c-3.702,13.046-8.282,24.951-13.43,34.928
			c-5.131,9.995-10.949,17.922-16.432,23.44C727.197,489.586,726.626,492.058,727.787,493.651z"></path>
		<path d="M670.097,587.472c0.417,1.906,1.535,3.302,2.585,3.204c6.367-0.529,15.737-3.157,25.094-8.773
			c9.365-5.541,18.511-14.134,24.868-24.116c6.401-9.953,10.375-21.86,11.482-32.685c1.179-10.848-0.357-20.458-2.544-26.46
			c-0.351-0.996-2.088-1.425-3.992-1.007c-1.904,0.419-3.361,1.467-3.346,2.406c0.152,5.775,0.255,14.184-1.484,23.426
			c-1.685,9.229-5.33,19.181-10.701,27.544c-5.344,8.379-12.855,15.861-20.529,21.256c-7.664,5.451-15.342,8.88-20.65,11.159
			C670.02,583.805,669.678,585.568,670.097,587.472z"></path>
		<path d="M60.397,534.646c0.419-1.903-0.057-3.714-1.093-4.155c-6.432-2.575-15.482-7.413-23.648-15.413
			c-8.142-7.981-15.148-19.002-18.364-30.781c-3.49-11.739-3.739-24.933-2.003-36.438c0.868-5.767,2.182-11.134,3.612-15.868
			c0.366-1.171,0.72-2.304,1.063-3.402c0.342-1.03,0.694-1.957,1.058-2.778c0.731-1.652,1.503-2.795,2.241-3.515
			c0.239-0.233,0.297-0.746,0.314-1.467c0.01-0.705-0.028-1.638-0.278-2.58c-0.251-0.939-0.728-1.729-1.441-2.198
			c-0.698-0.463-1.622-0.555-2.418-0.171c-2.452,1.167-4.478,3.234-6.012,5.468c-0.779,1.122-1.464,2.309-2.085,3.515
			c-0.619,1.211-1.129,2.372-1.717,3.63c-2.237,4.998-4.241,10.856-5.632,17.29c-2.788,12.829-2.89,28.127,1.219,41.988
			c1.967,6.911,5.001,13.799,8.961,19.868c3.926,6.102,8.646,11.52,13.727,15.907c10.196,8.818,21.637,13.252,29.478,14.161
			C58.671,537.889,59.974,536.551,60.397,534.646z"></path>
		<path d="M236.16,127.002c0.608-1.853-0.329-3.813-2.183-4.508c-1.413-0.521-2.909-1.102-4.511-1.626
			c-1.625-0.452-3.333-0.926-5.113-1.42c-1.78-0.536-3.68-0.872-5.649-1.25c-1.969-0.376-4.012-0.797-6.147-0.993
			c-8.504-1.125-18.243-1.234-28.415,0.176c-20.37,2.722-42.258,11.613-59.631,25.446c-8.662,6.875-16.555,15.087-23.013,24.096
			c-1.657,2.222-3.131,4.557-4.629,6.849c-1.396,2.36-2.828,4.674-4.054,7.076c-1.312,2.356-2.405,4.799-3.546,7.173
			c-1.014,2.438-2.09,4.81-2.931,7.24c-3.589,9.603-5.656,19.166-6.208,27.87c-0.542,8.706,0.494,16.484,2.345,22.418
			c0.605,1.958,2.6,2.996,4.455,2.445c1.883-0.556,3.068-2.313,2.84-4.06c-0.728-5.403-0.867-12.182,0.225-19.814
			c1.106-7.622,3.425-16.087,7.035-24.671c0.843-2.165,1.905-4.276,2.887-6.447c1.111-2.113,2.155-4.289,3.402-6.385
			c1.161-2.143,2.515-4.199,3.814-6.303c1.403-2.038,2.768-4.122,4.299-6.101c5.957-8.035,13.114-15.366,20.885-21.536
			c3.911-3.061,8-5.946,12.344-8.513c4.357-2.527,8.811-4.945,13.424-6.917c9.154-4.116,18.691-6.862,27.827-8.522
			c9.152-1.647,17.94-2.046,25.76-1.648c1.966,0.015,3.853,0.242,5.685,0.413c1.833,0.173,3.612,0.291,5.293,0.6
			c1.696,0.248,3.32,0.485,4.868,0.711c1.538,0.304,3,0.595,4.379,0.867C233.697,130.016,235.552,128.854,236.16,127.002z"></path>
	</g>
</g>
</svg>
